<?xml version="1.0" encoding="utf-8"?>
<!-- Generator: Adobe Illustrator 19.0.0, SVG Export Plug-In . SVG Version: 6.00 Build 0)  -->
<svg version="1.2" baseProfile="tiny" id="Artwork" xmlns="http://www.w3.org/2000/svg" xmlns:xlink="http://www.w3.org/1999/xlink"
	 x="0px" y="0px" viewBox="0 0 792 612" xml:space="preserve">
<g id="QuickBooks_-_Clearspace__x26__Lockup">
	<g id="QuickBooks_Lockup">
		<g id="Wordmark_2_">
			<path id="quickbooks" d="M325,372.2c-6.5,0-9.8-5.8-9.8-11.4c0-5.6,3.6-11.2,9.5-11.2c2.8,0,6.3,1.4,7.6,3.3l6.9-6.9
				c-3.3-3.5-8.6-5.6-14.5-5.6c-12,0-20.7,8.6-20.7,20.4c0,12,8.6,20.4,20.9,20.4c5.9,0,11.3-1.7,14.5-5.2l-6.7-7.2
				C331.2,370.8,327.9,372.2,325,372.2z M267.1,362.7c0,4.5-3,9.4-8.5,9.4c-4.3,0-6.5-3-6.5-9.3v-21.4h-10.7v24
				c0,8,4,15.8,14.6,15.8c5,0,9.2-4,11.4-6.9h0.2v5.8h10.2v-38.7h-10.7V362.7z M286.5,380.2h10.7v-38.7h-10.7V380.2z M222.1,346.4
				h-0.2c-1.5-1.7-5.6-6-12.2-6c-10.9,0-19.3,8.5-19.3,20.3c0,11.9,7.7,20.6,18.8,20.6c5,0,9.7-2.7,12.4-5.7h0.2v23.7h10.7v-57.7
				h-10.3V346.4z M211.8,372.2c-6.6,0-10.4-5.8-10.4-11.5c0-5.4,3.4-11.3,10.4-11.3c6.4,0,10.3,5.9,10.3,11.5
				C222.1,366.4,218.2,372.2,211.8,372.2z M455.1,340.4c-12.2,0-21,8.5-21,20.3c0,12.2,9,20.7,21,20.7c12,0,21-8.6,21-20.7
				C476.1,349,467.2,340.4,455.1,340.4z M455.1,372.2c-7,0-10.1-5.9-10.1-11.5c0-5.4,3.2-11.3,10.1-11.3c7,0,10.1,5.9,10.1,11.3
				C465.2,366.2,462.1,372.2,455.1,372.2z M568.5,341.5h-13.8l-13.8,16.1h-0.2v-37.4H530v60h10.7v-19.1h0.2l14.3,19.1h14.1
				l-16.6-21.1L568.5,341.5z M502,340.4c-12.2,0-21,8.5-21,20.3c0,12.2,9,20.7,21,20.7c12,0,21-8.6,21-20.7
				C523,349,514.2,340.4,502,340.4z M502,372.2c-7,0-10.1-5.9-10.1-11.5c0-5.4,3.2-11.3,10.1-11.3c7,0,10.1,5.9,10.1,11.3
				C512.2,366.2,509,372.2,502,372.2z M383.3,341.5h-13.8l-13.8,16.1h-0.2v-37.4h-10.7v60h10.7v-19.1h0.2l14.3,19.1h14.1l-16.6-21.1
				L383.3,341.5z M410,340.4c-4.9,0-8.5,2.1-11.9,5.3H398v-25.6h-10.7v60h10.2v-5.5h0.2c2.4,4,7.2,6.6,12.2,6.6
				c11,0,19.4-8.7,19.4-20.6C429.2,349,420.9,340.4,410,340.4z M407.9,372.2c-6.4,0-10.3-5.7-10.3-11.3c0-5.5,3.9-11.5,10.3-11.5
				c6.9,0,10.4,5.9,10.4,11.3C418.3,366.4,414.5,372.2,407.9,372.2z M588.6,356.4c-5.5-1.3-7.4-2-7.4-4.2c0-3.1,3.9-3.7,5.7-3.7
				c3.3,0,7.1,2,8.5,3.9l6.3-6c-2.9-3.7-8.6-5.8-14.7-5.8c-7.7,0-15.8,3.9-15.8,12.6c0,7.5,5.8,9.7,11.6,11.1c6,1.4,8.2,2.4,8.2,4.9
				c0,3.6-4.1,4.2-5.5,4.2c-3.5,0-7.5-2-9.7-4.6l-6.5,6.6c3.5,3.9,9.6,6.3,15.8,6.3c10.4,0,16.6-5,16.6-13.2
				C601.6,360.3,594,357.7,588.6,356.4z"/>
			<path id="_xAE__1_" d="M611.1,371.4c-2.5,0-4.4,2-4.4,4.4s2,4.4,4.4,4.4c2.5,0,4.4-1.9,4.4-4.4S613.5,371.4,611.1,371.4z
				 M611.1,379.6c-2.1,0-3.7-1.7-3.7-3.7c0-2.1,1.7-3.7,3.7-3.7c2.1,0,3.7,1.7,3.7,3.7C614.8,377.9,613.1,379.6,611.1,379.6z
				 M612.9,374.8c0-1.1-0.9-1.5-1.9-1.5h-1.8v5h0.9v-2.1h0.6l1.2,2.1h1.1l-1.3-2.2C612.5,376,612.9,375.5,612.9,374.8z M610.2,375.5
				v-1.4h0.8c0.5,0,1,0.1,1,0.7c0,0.6-0.6,0.7-1.1,0.7H610.2z"/>
		</g>
		<g id="Icon_2_">
			<circle id="Circle_2_" fill="#2CA01C" cx="396" cy="257.7" r="45"/>
			<path id="qb" fill="#FFFFFF" d="M363.5,257.7c0,9.7,7.8,17.5,17.5,17.5h2.5v-6.5H381c-6.1,0-11-4.9-11-11s4.9-11,11-11h6
				c0,0,0,33.4,0,34c0,3.6,2.9,6.5,6.5,6.5v-47c0,0-6.7,0-12.5,0C371.3,240.2,363.5,248.1,363.5,257.7z M411,240.2h-2.5v6.5h2.5
				c6.1,0,11,4.9,11,11c0,6.1-4.9,11-11,11h-6c0,0,0-33.4,0-34c0-3.6-2.9-6.5-6.5-6.5v47c0,0,6.7,0,12.5,0c9.7,0,17.5-7.8,17.5-17.5
				C428.5,248.1,420.7,240.2,411,240.2z"/>
		</g>
		<path id="intuit_2_" d="M211.5,315.2c-2.2,0-3.9,1.3-4.6,2.8h-0.1v-2.4h-3.5v14.8h3.7v-8.1c0-2,1.1-4,3.4-4c2.4,0,2.8,2.2,2.8,3.9
			v8.2h3.7v-9.2C216.9,318.1,215.3,315.2,211.5,315.2z M195.9,330.4h3.7v-14.8h-3.7V330.4z M263,313.7c1.2,0,2.2-1,2.2-2.2
			c0-1.2-1-2.2-2.2-2.2c-1.2,0-2.2,1-2.2,2.2C260.7,312.7,261.7,313.7,263,313.7z M224.8,313.7c1.2,0,2.2-1,2.2-2.2
			c0-1.2-1-2.2-2.2-2.2c-1.2,0-2.2,1-2.2,2.2C222.6,312.7,223.6,313.7,224.8,313.7z M218.8,318.9h4.1v11.5h3.7v-11.5h4.1v-3.3h-12
			V318.9z M243.2,323.7c0,2-1.1,4-3.4,4c-2.4,0-2.8-2.2-2.8-3.9v-8.2h-3.7v9.2c0,3,1.6,6,5.4,6c2.2,0,3.9-1.3,4.6-2.8h0.1v2.4h3.5
			v-14.8h-3.7V323.7z M257,315.6v3.3h4.1v11.5h3.7v-11.5h4.1v-3.3H257z M250.7,330.4h3.7v-14.8h-3.7V330.4z"/>
	</g>
	<rect id="Clearspace_1_" x="145.4" y="167.7" fill="none" width="501.2" height="276.6"/>
</g>
</svg>
