<?xml version="1.0" encoding="utf-8"?>
<!-- Generator: Adobe Illustrator 19.0.0, SVG Export Plug-In . SVG Version: 6.00 Build 0)  -->
<svg version="1.2" baseProfile="tiny" id="Layer_1" xmlns="http://www.w3.org/2000/svg" xmlns:xlink="http://www.w3.org/1999/xlink"
	 x="0px" y="0px" viewBox="0 0 792 612" xml:space="preserve">
<g id="QuickBooks_-_Clearspace__x26__Lockup">
	<g id="QuickBooks_Lockup">
		<g id="Wordmark">
			<path id="_xAE__1_" d="M664,332.3c0-1.1-0.9-1.5-1.9-1.5h-1.8v5h0.9v-2.1h0.6l1.2,2.1h1.1l-1.3-2.2
				C663.5,333.5,664,333,664,332.3z M661.2,333v-1.4h0.8c0.5,0,1,0.1,1,0.7c0,0.6-0.6,0.7-1.1,0.7H661.2z M662.1,328.9
				c-2.5,0-4.4,2-4.4,4.4s2,4.4,4.4,4.4s4.4-1.9,4.4-4.4S664.5,328.9,662.1,328.9z M662.1,337.1c-2.1,0-3.7-1.7-3.7-3.7
				c0-2.1,1.7-3.7,3.7-3.7c2.1,0,3.7,1.7,3.7,3.7C665.8,335.4,664.1,337.1,662.1,337.1z"/>
			<path id="quickbooks" d="M376,329.7c-6.5,0-9.8-5.8-9.8-11.4c0-5.6,3.6-11.2,9.5-11.2c2.8,0,6.3,1.4,7.6,3.3l6.9-6.9
				c-3.3-3.5-8.6-5.6-14.5-5.6c-12,0-20.7,8.6-20.7,20.4c0,12,8.6,20.4,20.9,20.4c5.9,0,11.3-1.7,14.5-5.2l-6.7-7.2
				C382.2,328.3,379,329.7,376,329.7z M337.5,337.7h10.7V299h-10.7V337.7z M318.1,320.2c0,4.5-3,9.4-8.5,9.4c-4.3,0-6.5-3-6.5-9.3
				V299h-10.7v24c0,8,4,15.8,14.6,15.8c5,0,9.2-4,11.4-6.9h0.2v5.8h10.2V299h-10.7V320.2z M273.1,303.9h-0.2c-1.5-1.7-5.6-6-12.2-6
				c-10.9,0-19.3,8.5-19.3,20.3c0,11.9,7.7,20.6,18.8,20.6c5,0,9.7-2.7,12.4-5.7h0.2v23.7h10.7V299h-10.3V303.9z M262.8,329.7
				c-6.6,0-10.4-5.8-10.4-11.5c0-5.4,3.4-11.3,10.4-11.3c6.4,0,10.3,5.9,10.3,11.5C273.1,323.9,269.2,329.7,262.8,329.7z
				 M506.1,297.9c-12.2,0-21,8.5-21,20.3c0,12.2,9,20.7,21,20.7c12,0,21-8.6,21-20.7C527.1,306.5,518.3,297.9,506.1,297.9z
				 M506.1,329.7c-7,0-10.1-5.9-10.1-11.5c0-5.4,3.2-11.3,10.1-11.3c7,0,10.1,5.9,10.1,11.3C516.2,323.7,513.1,329.7,506.1,329.7z
				 M639.7,313.9c-5.5-1.3-7.4-2-7.4-4.2c0-3.1,3.9-3.7,5.7-3.7c3.3,0,7.1,2,8.5,3.9l6.3-6c-2.9-3.7-8.6-5.8-14.7-5.8
				c-7.7,0-15.8,3.9-15.8,12.6c0,7.5,5.8,9.7,11.6,11.1c6,1.4,8.2,2.4,8.2,4.9c0,3.6-4.1,4.2-5.5,4.2c-3.5,0-7.5-2-9.7-4.6l-6.5,6.6
				c3.5,3.9,9.6,6.3,15.8,6.3c10.4,0,16.6-5,16.6-13.2C652.6,317.8,645.1,315.2,639.7,313.9z M619.5,299h-13.8l-13.8,16.1h-0.2
				v-37.4H581v60h10.7v-19.1h0.2l14.3,19.1h14.1l-16.6-21.1L619.5,299z M461,297.9c-4.9,0-8.5,2.1-11.9,5.3H449v-25.6h-10.7v60h10.2
				v-5.5h0.2c2.4,4,7.2,6.6,12.2,6.6c11,0,19.4-8.7,19.4-20.6C480.2,306.5,471.9,297.9,461,297.9z M458.9,329.7
				c-6.4,0-10.3-5.7-10.3-11.3c0-5.5,3.9-11.5,10.3-11.5c6.9,0,10.4,5.9,10.4,11.3C469.3,323.9,465.6,329.7,458.9,329.7z M434.3,299
				h-13.8l-13.8,16.1h-0.2v-37.4h-10.7v60h10.7v-19.1h0.2l14.3,19.1h14.1l-16.6-21.1L434.3,299z M553,297.9c-12.2,0-21,8.5-21,20.3
				c0,12.2,9,20.7,21,20.7c12,0,21-8.6,21-20.7C574,306.5,565.2,297.9,553,297.9z M553,329.7c-7,0-10.1-5.9-10.1-11.5
				c0-5.4,3.2-11.3,10.1-11.3c7,0,10.1,5.9,10.1,11.3C563.2,323.7,560,329.7,553,329.7z"/>
		</g>
		<g id="Icon_2_">
			<circle id="Circle_2_" fill="#2CA01C" cx="184.4" cy="300.2" r="45"/>
			<path id="qb" fill="#FFFFFF" d="M151.9,300.2c0,9.7,7.8,17.5,17.5,17.5h2.5v-6.5h-2.5c-6.1,0-11-4.9-11-11c0-6.1,4.9-11,11-11h6
				c0,0,0,33.4,0,34c0,3.6,2.9,6.5,6.5,6.5v-47c0,0-6.7,0-12.5,0C159.7,282.7,151.9,290.6,151.9,300.2z M199.4,282.7h-2.5v6.5h2.5
				c6.1,0,11,4.9,11,11s-4.9,11-11,11h-6c0,0,0-33.4,0-34c0-3.6-2.9-6.5-6.5-6.5v47c0,0,6.7,0,12.5,0c9.7,0,17.5-7.8,17.5-17.5
				C216.9,290.6,209,282.7,199.4,282.7z"/>
		</g>
		<path id="intuit_2_" d="M285.4,265.5c1.6,0,3-1.3,3-3c0-1.6-1.3-3-3-3c-1.6,0-3,1.3-3,3C282.5,264.1,283.8,265.5,285.4,265.5z
			 M267.7,267.5c-2.9,0-5.2,1.8-6.1,3.7h-0.1v-3.2h-4.7v19.7h4.9v-10.8c0-2.6,1.5-5.3,4.6-5.3c3.2,0,3.7,2.9,3.7,5.2v10.9h4.9v-12.3
			C275,271.4,272.8,267.5,267.7,267.5z M246.9,287.7h4.9v-19.7h-4.9V287.7z M336.4,265.5c1.6,0,3-1.3,3-3c0-1.6-1.3-3-3-3
			c-1.6,0-3,1.3-3,3C333.4,264.1,334.7,265.5,336.4,265.5z M328.4,268v4.4h5.5v15.3h4.9v-15.3h5.5V268H328.4z M320,287.7h4.9v-19.7
			H320V287.7z M277.5,272.4h5.5v15.3h4.9v-15.3h5.5V268h-16V272.4z M310,278.9c0,2.6-1.5,5.3-4.6,5.3c-3.2,0-3.7-2.9-3.7-5.2v-10.9
			h-4.9v12.3c0,4,2.1,8,7.3,8c2.9,0,5.2-1.8,6.1-3.7h0.1v3.2h4.7v-19.7H310V278.9z"/>
	</g>
	<rect id="Clearspace_1_" x="94.4" y="210.2" fill="none" width="603.3" height="191.5"/>
</g>
</svg>
